<svg width="67" height="63" viewBox="0 0 67 63" fill="none" xmlns="http://www.w3.org/2000/svg">
<g filter="url(#filter0_d_536_349)">
<path d="M58.9953 29.5313C59.1533 28.7573 59.1227 27.9567 58.906 27.1971C58.6893 26.4374 58.293 25.7411 57.7506 25.1669C57.2081 24.5927 56.5354 24.1575 55.7893 23.8981C55.0432 23.6387 54.2456 23.5627 53.4639 23.6765C53.0633 23.207 52.5257 22.8749 51.9266 22.7268C51.3275 22.5788 50.697 22.6223 50.1239 22.8512C49.4847 21.857 48.6003 21.0441 47.556 20.4907C46.5116 19.9374 45.3424 19.6621 44.1608 19.6915C44.0094 19.2609 43.7602 18.8713 43.4328 18.5533C43.1054 18.2353 42.7087 17.9975 42.2739 17.8587C41.8391 17.7198 41.3781 17.6837 40.927 17.7531C40.4759 17.8225 40.047 17.9955 39.674 18.2586C38.0214 16.65 35.8062 15.75 33.5 15.75C31.1938 15.75 28.9787 16.65 27.326 18.2586C26.9531 17.9955 26.5242 17.8225 26.0731 17.7531C25.622 17.6837 25.1609 17.7198 24.7261 17.8587C24.2913 17.9975 23.8947 18.2353 23.5673 18.5533C23.2399 18.8713 22.9907 19.2609 22.8392 19.6915C21.6577 19.6621 20.4885 19.9374 19.4442 20.4908C18.3999 21.0442 17.5156 21.8571 16.8764 22.8512C16.3033 22.6223 15.6728 22.5788 15.0737 22.7268C14.4746 22.8749 13.937 23.207 13.5364 23.6765C12.7549 23.5635 11.9576 23.6401 11.2119 23.8998C10.4662 24.1595 9.79383 24.5947 9.25152 25.1687C8.70922 25.7427 8.31286 26.4386 8.09587 27.1979C7.87888 27.9571 7.84761 28.7574 8.00471 29.5313L9.87502 30.5157H58.1094L58.9953 29.5313Z" fill="#A45E14"/>
<path d="M62.0469 49.2188H4.95312V45.2812L6.92188 44.2969H61.0625L62.0469 45.2812V49.2188Z" fill="#50559F"/>
<path d="M62.0469 45.2812H4.95312L7.90625 29.5312H59.0938L62.0469 45.2812Z" fill="#5D62B5"/>
<path d="M41.7811 37.4061C42.0827 37.2026 42.3278 36.9261 42.4936 36.6022C42.6593 36.2783 42.7403 35.9178 42.729 35.5541C42.7177 35.1905 42.6144 34.8356 42.4289 34.5227C42.2433 34.2098 41.9814 33.949 41.6678 33.7647C41.3541 33.5803 40.9989 33.4784 40.6352 33.4686C40.2715 33.4587 39.9113 33.5411 39.5881 33.7082C39.2649 33.8752 38.9893 34.1214 38.787 34.4238C38.5847 34.7262 38.4623 35.0749 38.4313 35.4374H28.7534C28.7221 35.0752 28.5996 34.7268 28.3973 34.4247C28.195 34.1226 27.9194 33.8767 27.5964 33.7099C27.2734 33.5431 26.9134 33.4609 26.5499 33.4708C26.1865 33.4807 25.8315 33.5826 25.5181 33.7668C25.2047 33.951 24.943 34.2116 24.7575 34.5242C24.572 34.8369 24.4687 35.1915 24.4573 35.5549C24.4458 35.9182 24.5266 36.2786 24.6921 36.6023C24.8576 36.926 25.1023 37.2026 25.4036 37.4061C25.102 37.6096 24.8568 37.8862 24.6911 38.21C24.5253 38.5339 24.4443 38.8945 24.4556 39.2581C24.4669 39.6217 24.5702 39.9766 24.7558 40.2895C24.9414 40.6024 25.2032 40.8632 25.5168 41.0476C25.8305 41.2319 26.1858 41.3338 26.5494 41.3437C26.9131 41.3535 27.2734 41.2711 27.5966 41.1041C27.9198 40.937 28.1954 40.6908 28.3977 40.3885C28.6 40.0861 28.7223 39.7374 28.7534 39.3749H38.4313C38.4625 39.7371 38.585 40.0855 38.7874 40.3875C38.9897 40.6896 39.2652 40.9355 39.5882 41.1023C39.9113 41.2691 40.2713 41.3514 40.6347 41.3414C40.9981 41.3315 41.3531 41.2297 41.6665 41.0455C41.98 40.8613 42.2417 40.6007 42.4272 40.288C42.6127 39.9753 42.7159 39.6208 42.7274 39.2574C42.7388 38.894 42.658 38.5336 42.4926 38.2099C42.3271 37.8862 42.0823 37.6097 41.7811 37.4061V37.4061Z" fill="#29C3BE"/>
<path d="M25.625 23.625C27.256 23.625 28.5781 22.3028 28.5781 20.6719C28.5781 19.0409 27.256 17.7188 25.625 17.7188C23.994 17.7188 22.6719 19.0409 22.6719 20.6719C22.6719 22.3028 23.994 23.625 25.625 23.625Z" fill="#62B58F"/>
<path d="M29.5625 25.5938C31.1935 25.5938 32.5156 24.2716 32.5156 22.6406C32.5156 21.0097 31.1935 19.6875 29.5625 19.6875C27.9315 19.6875 26.6094 21.0097 26.6094 22.6406C26.6094 24.2716 27.9315 25.5938 29.5625 25.5938Z" fill="#F2726F"/>
<path d="M15.7812 28.5469C17.4122 28.5469 18.7344 27.2247 18.7344 25.5938C18.7344 23.9628 17.4122 22.6406 15.7812 22.6406C14.1503 22.6406 12.8281 23.9628 12.8281 25.5938C12.8281 27.2247 14.1503 28.5469 15.7812 28.5469Z" fill="#F2726F"/>
<path d="M51.2188 28.5469C52.8497 28.5469 54.1719 27.2247 54.1719 25.5938C54.1719 23.9628 52.8497 22.6406 51.2188 22.6406C49.5878 22.6406 48.2656 23.9628 48.2656 25.5938C48.2656 27.2247 49.5878 28.5469 51.2188 28.5469Z" fill="#62B58F"/>
<path d="M41.375 23.625C43.006 23.625 44.3281 22.3028 44.3281 20.6719C44.3281 19.0409 43.006 17.7188 41.375 17.7188C39.744 17.7188 38.4219 19.0409 38.4219 20.6719C38.4219 22.3028 39.744 23.625 41.375 23.625Z" fill="#F2726F"/>
</g>
<defs>
<filter id="filter0_d_536_349" x="-2" y="0" width="71" height="71" filterUnits="userSpaceOnUse" color-interpolation-filters="sRGB">
<feFlood flood-opacity="0" result="BackgroundImageFix"/>
<feColorMatrix in="SourceAlpha" type="matrix" values="0 0 0 0 0 0 0 0 0 0 0 0 0 0 0 0 0 0 127 0" result="hardAlpha"/>
<feOffset dy="4"/>
<feGaussianBlur stdDeviation="2"/>
<feComposite in2="hardAlpha" operator="out"/>
<feColorMatrix type="matrix" values="0 0 0 0 0 0 0 0 0 0 0 0 0 0 0 0 0 0 0.25 0"/>
<feBlend mode="normal" in2="BackgroundImageFix" result="effect1_dropShadow_536_349"/>
<feBlend mode="normal" in="SourceGraphic" in2="effect1_dropShadow_536_349" result="shape"/>
</filter>
</defs>
</svg>
